<svg width="519" height="107" viewBox="0 0 519 107" fill="none" xmlns="http://www.w3.org/2000/svg">
<path d="M7.5 98L1.01817 87.4231C-1.38183 83.4231 1.01817 76.0897 2.51817 72.9231L24.5182 18.4231C28.1182 8.82306 35.6849 7.08973 39.0182 7.42306H51.5182C61.5182 -5.77695 73.0182 1.58971 77.5182 6.92304L110.018 6.42303C122.418 6.42303 129.018 25.423 133.518 34.423L154.018 74.923C156.418 79.723 155.018 84.923 154.018 86.923L147.518 97.423L7.5 98Z" fill="#F5F7F4"/>
<path d="M13.2202 73.2009C12.6443 74.522 13.6124 76.0001 15.0535 76.0001H139.727C141.223 76.0001 142.189 74.4186 141.507 73.0877L113.066 17.6045C112.719 16.9281 112.019 16.5066 111.259 16.5171L77.211 16.9835C76.4666 16.9937 75.7929 17.4197 75.4392 18.0748C72.5273 23.4687 69.9678 25.1908 64.7355 25.9661C64.5805 25.989 64.4186 25.9926 64.2627 25.9766C58.5137 25.3863 56.0813 23.5302 53.56 18.6327C53.2071 17.9471 52.5089 17.5001 51.7378 17.5001H38.81C38.0144 17.5001 37.2945 17.9716 36.9766 18.7009L13.2202 73.2009Z" fill="#D9D9D9"/>
<path d="M14 80.0001C12.8954 80.0001 12 80.8955 12 82.0001V100C12 101.105 12.8954 102 14 102H141C142.105 102 143 101.105 143 100V82.0001C143 80.8955 142.105 80.0001 141 80.0001H14Z" fill="#B70F1E"/>
<path fill-rule="evenodd" clip-rule="evenodd" d="M8.15702 75.6275C8.05339 75.8734 8 76.1375 8 76.4043V104C8 105.105 8.89543 106 10 106H145C146.105 106 147 105.105 147 104V80.8233C147 80.0925 147.592 79.5001 148.323 79.5001V79.5001C149.315 79.5001 149.955 78.4485 149.498 77.5677L117.574 16.0001C116.902 14.685 116.478 13.9981 115.5 13.0001C114.861 12.4894 114.201 12.2911 112.647 12.0934C112.549 12.081 112.451 12.0763 112.352 12.0787L75.5 13.0001C75.0813 12.9829 70.4468 5.97745 65 6.00005C59.9408 6.02105 56.6964 7.50783 54.0887 11.9311C53.7085 12.576 53.0296 13.0001 52.281 13.0001H37.5C35.3416 13.2782 34.4352 13.7897 33.5 15.5001L8.15702 75.6275ZM14 102C12.8954 102 12 101.105 12 100V82.0001C12 80.8955 12.8954 80.0001 14 80.0001H141C142.105 80.0001 143 80.8955 143 82.0001V100C143 101.105 142.105 102 141 102H14ZM141.507 73.0877C142.189 74.4186 141.223 76.0001 139.727 76.0001H15.0535C13.6124 76.0001 12.6443 74.522 13.2202 73.2009L36.9766 18.7009C37.2945 17.9716 38.0144 17.5001 38.81 17.5001H51.7378C52.5089 17.5001 53.2071 17.9471 53.56 18.6327C56.0813 23.5302 58.5137 25.3863 64.2627 25.9766C64.4186 25.9926 64.5805 25.989 64.7355 25.9661C69.9678 25.1908 72.5273 23.4687 75.4392 18.0748C75.7929 17.4197 76.4666 16.9937 77.211 16.9835L111.259 16.5171C112.019 16.5066 112.719 16.9281 113.066 17.6045L141.507 73.0877Z" fill="black"/>
<path d="M39 34.0001L111.5 33.0001M115.5 13.0001C116.478 13.9981 116.902 14.685 117.574 16.0001L149.498 77.5677C149.955 78.4485 149.315 79.5001 148.323 79.5001V79.5001C147.592 79.5001 147 80.0925 147 80.8233V104C147 105.105 146.105 106 145 106H10C8.89543 106 8 105.105 8 104V76.4043C8 76.1375 8.05339 75.8734 8.15702 75.6275L33.5 15.5001C34.4352 13.7897 35.3416 13.2782 37.5 13.0001H52.281C53.0296 13.0001 53.7085 12.576 54.0887 11.9311C56.6964 7.50783 59.9408 6.02105 65 6.00005C70.4468 5.97745 75.0813 12.9829 75.5 13.0001L112.352 12.0787C112.451 12.0763 112.549 12.081 112.647 12.0934C114.201 12.2911 114.861 12.4894 115.5 13.0001ZM38.81 17.5001H51.7378C52.5089 17.5001 53.2071 17.9471 53.56 18.6327C56.0813 23.5302 58.5137 25.3863 64.2627 25.9766C64.4186 25.9926 64.5805 25.989 64.7355 25.9661C69.9678 25.1908 72.5273 23.4687 75.4392 18.0748C75.7929 17.4197 76.4666 16.9937 77.211 16.9835L111.259 16.5171C112.019 16.5066 112.719 16.9281 113.066 17.6045L141.507 73.0877C142.189 74.4186 141.223 76.0001 139.727 76.0001H15.0535C13.6124 76.0001 12.6443 74.522 13.2202 73.2009L36.9766 18.7009C37.2945 17.9716 38.0144 17.5001 38.81 17.5001ZM143 82.0001V100C143 101.105 142.105 102 141 102H14C12.8954 102 12 101.105 12 100V82.0001C12 80.8955 12.8954 80.0001 14 80.0001H141C142.105 80.0001 143 80.8955 143 82.0001Z" stroke="black"/>
<path d="M116.5 42.0001L47.5 42.5001C39.3545 42.4196 36.4354 42.6287 34.5 43.5001" stroke="black"/>
<path d="M31 52.0001C33.3341 51.1885 36.2638 50.9754 39 51.0001H46L120.5 50.5001" stroke="black"/>
<path d="M27 62.0001C28.3297 60.6102 34.2423 59.8839 40.5 60.0001C73.4993 59.8048 91.5007 59.6953 124.5 59.5001" stroke="black"/>
<path d="M24 70.5001C28.876 68.9949 30.6414 68.598 37.5 68.5L129 68.0001" stroke="black"/>
<path d="M39 34.0001L110.87 33.0019C110.956 33.0007 111.042 33.0107 111.126 33.0316L113 33.5001" stroke="black"/>
<path d="M57.6384 13.6495C58.4822 12.1231 59.5007 11.2554 61.1335 10.6476C62.6597 10.0796 64.3419 9.97987 65.9289 10.3448C67.9431 10.8079 69.0989 11.7079 69.9437 13.5354C70.3794 14.4779 70.5 15.5286 70.5 16.567C70.5 17.8442 70.3521 19.1724 69.606 20.209C68.9357 21.1402 68.0882 21.6785 66.8318 22.1105C65.9607 22.41 65.034 22.5001 64.1129 22.5001C62.3947 22.5001 60.6226 22.2069 59.264 21.155C58.5801 20.6256 58.0841 20.0599 57.6621 19.3511C57.1537 18.4971 57 17.4885 57 16.4946C57 15.5078 57.161 14.5131 57.6384 13.6495Z" fill="#B70F1E" stroke="black"/>
<path d="M188.535 61.362C188.25 61.5653 187.864 61.7483 187.376 61.911C186.929 62.0737 186.42 62.155 185.851 62.155C185.2 62.155 184.611 62.0533 184.082 61.85C183.594 61.6467 183.248 61.3213 183.045 60.874C180.89 56.3193 178.999 52.151 177.372 48.369C175.786 44.587 174.505 41.4557 173.529 38.975H173.285C173.163 42.025 173.021 44.8717 172.858 47.515C172.736 50.1583 172.594 52.7203 172.431 55.201C172.268 57.641 172.106 60.1623 171.943 62.765C171.821 65.327 171.658 68.072 171.455 71C171.211 71.0813 170.886 71.1627 170.479 71.244C170.113 71.3253 169.706 71.366 169.259 71.366C168.364 71.366 167.734 71.183 167.368 70.817C167.002 70.4103 166.819 69.8817 166.819 69.231C166.819 68.743 166.86 67.6247 166.941 65.876C167.063 64.0867 167.185 61.911 167.307 59.349C167.47 56.787 167.653 54.0623 167.856 51.175C168.059 48.247 168.263 45.38 168.466 42.574C168.71 39.7273 168.934 37.1653 169.137 34.888C169.462 34.6033 169.93 34.339 170.54 34.095C171.15 33.851 171.841 33.729 172.614 33.729C173.549 33.729 174.342 33.912 174.993 34.278C175.644 34.644 176.152 35.2133 176.518 35.986C177.575 38.06 178.633 40.317 179.69 42.757C180.747 45.197 181.784 47.637 182.801 50.077C183.818 52.517 184.794 54.8147 185.729 56.97H185.973C187.762 52.6593 189.531 48.5113 191.28 44.526C193.069 40.5407 194.574 37.145 195.794 34.339C196.16 34.1357 196.628 33.9933 197.197 33.912C197.766 33.79 198.295 33.729 198.783 33.729C199.718 33.729 200.45 33.8917 200.979 34.217C201.548 34.5017 201.914 34.9897 202.077 35.681C202.24 36.3723 202.423 37.5517 202.626 39.219C202.829 40.8863 203.033 42.8587 203.236 45.136C203.439 47.3727 203.622 49.7313 203.785 52.212C203.988 54.6927 204.171 57.1327 204.334 59.532C204.497 61.9313 204.639 64.107 204.761 66.059C204.924 67.9703 205.025 69.4953 205.066 70.634C204.7 70.878 204.314 71.061 203.907 71.183C203.5 71.305 203.033 71.366 202.504 71.366C201.894 71.366 201.345 71.2237 200.857 70.939C200.41 70.6137 200.145 70.0443 200.064 69.231C199.82 65.2863 199.576 61.4027 199.332 57.58C199.129 53.7167 198.946 50.1787 198.783 46.966C198.62 43.7533 198.478 41.1303 198.356 39.097H198.112C197.217 41.3337 195.997 44.221 194.452 47.759C192.907 51.2563 190.934 55.7907 188.535 61.362ZM215.702 60.02L215.458 56.177L233.88 53.676C233.718 51.4393 232.945 49.6093 231.562 48.186C230.18 46.722 228.268 45.99 225.828 45.99C223.307 45.99 221.213 46.905 219.545 48.735C217.919 50.5243 217.105 53.1067 217.105 56.482V57.824C217.39 61.0773 218.447 63.558 220.277 65.266C222.148 66.9333 224.69 67.767 227.902 67.767C229.61 67.767 231.156 67.4823 232.538 66.913C233.921 66.3437 235.019 65.7337 235.832 65.083C236.28 65.3677 236.625 65.7133 236.869 66.12C237.154 66.486 237.296 66.913 237.296 67.401C237.296 68.1737 236.849 68.9057 235.954 69.597C235.1 70.2477 233.941 70.7763 232.477 71.183C231.054 71.5897 229.448 71.793 227.658 71.793C224.527 71.793 221.802 71.2237 219.484 70.085C217.207 68.9463 215.438 67.2587 214.177 65.022C212.957 62.7447 212.347 59.9793 212.347 56.726C212.347 54.408 212.673 52.3543 213.323 50.565C214.015 48.735 214.95 47.1897 216.129 45.929C217.349 44.6683 218.793 43.7127 220.46 43.062C222.128 42.3707 223.937 42.025 225.889 42.025C228.37 42.025 230.546 42.5537 232.416 43.611C234.328 44.6683 235.812 46.1527 236.869 48.064C237.967 49.9347 238.516 52.09 238.516 54.53C238.516 55.4247 238.313 56.0753 237.906 56.482C237.5 56.848 236.93 57.0717 236.198 57.153L215.702 60.02ZM268.318 51.48V58.495H263.438V51.846C263.438 49.8533 262.849 48.3893 261.669 47.454C260.531 46.5187 259.006 46.051 257.094 46.051C255.834 46.051 254.614 46.2543 253.434 46.661C252.255 47.0677 251.259 47.5353 250.445 48.064V58.495H245.565V48.308C245.565 47.4947 245.728 46.8033 246.053 46.234C246.419 45.6647 247.029 45.1157 247.883 44.587C248.981 43.8957 250.364 43.306 252.031 42.818C253.739 42.2893 255.447 42.025 257.155 42.025C259.229 42.025 261.059 42.3503 262.645 43.001C264.231 43.611 265.411 44.465 266.183 45.563C266.427 45.807 266.631 46.0307 266.793 46.234C266.956 46.4373 267.119 46.7017 267.281 47.027C267.566 47.515 267.81 48.1453 268.013 48.918C268.217 49.6907 268.318 50.5447 268.318 51.48ZM286.191 51.602V58.495H281.311V51.846C281.311 49.8533 280.742 48.3893 279.603 47.454C278.465 46.5187 276.94 46.051 275.028 46.051C273.605 46.051 272.222 46.356 270.88 46.966C269.579 47.5353 268.4 48.369 267.342 49.467L265.39 45.929C266.448 44.8717 267.83 43.9567 269.538 43.184C271.246 42.4113 273.198 42.025 275.394 42.025C277.59 42.025 279.481 42.3707 281.067 43.062C282.694 43.7533 283.955 44.8107 284.849 46.234C285.744 47.6573 286.191 49.4467 286.191 51.602ZM245.565 55.262H250.445V70.878C250.242 70.9593 249.937 71.0407 249.53 71.122C249.124 71.244 248.676 71.305 248.188 71.305C247.334 71.305 246.684 71.1423 246.236 70.817C245.789 70.451 245.565 69.8817 245.565 69.109V55.262ZM263.438 55.262H268.318V70.878C268.115 70.9593 267.79 71.0407 267.342 71.122C266.936 71.244 266.509 71.305 266.061 71.305C265.167 71.305 264.496 71.1423 264.048 70.817C263.642 70.451 263.438 69.8817 263.438 69.109V55.262ZM281.311 55.262H286.191V70.878C285.988 70.9593 285.663 71.0407 285.215 71.122C284.809 71.244 284.382 71.305 283.934 71.305C283.04 71.305 282.369 71.1423 281.921 70.817C281.515 70.451 281.311 69.8817 281.311 69.109V55.262ZM321.535 56.909C321.535 59.9183 320.966 62.5413 319.827 64.778C318.688 67.0147 317.082 68.743 315.008 69.963C312.934 71.183 310.494 71.793 307.688 71.793C304.882 71.793 302.422 71.183 300.307 69.963C298.233 68.743 296.627 67.0147 295.488 64.778C294.349 62.5413 293.78 59.9183 293.78 56.909C293.78 53.859 294.349 51.236 295.488 49.04C296.667 46.8033 298.294 45.075 300.368 43.855C302.483 42.635 304.923 42.025 307.688 42.025C310.453 42.025 312.873 42.635 314.947 43.855C317.021 45.075 318.627 46.8033 319.766 49.04C320.945 51.236 321.535 53.859 321.535 56.909ZM307.688 46.051C304.963 46.051 302.788 47.027 301.161 48.979C299.575 50.8903 298.782 53.5337 298.782 56.909C298.782 60.325 299.555 62.9887 301.1 64.9C302.686 66.8113 304.882 67.767 307.688 67.767C310.453 67.767 312.609 66.8113 314.154 64.9C315.74 62.948 316.533 60.2843 316.533 56.909C316.533 53.5337 315.74 50.8903 314.154 48.979C312.609 47.027 310.453 46.051 307.688 46.051ZM333.963 48.064V57.702H329.083V48.43C329.083 47.4947 329.245 46.7627 329.571 46.234C329.937 45.6647 330.526 45.1157 331.34 44.587C332.397 43.8957 333.841 43.306 335.671 42.818C337.501 42.2893 339.534 42.025 341.771 42.025C345.024 42.025 346.651 42.8383 346.651 44.465C346.651 44.8717 346.59 45.258 346.468 45.624C346.346 45.9493 346.183 46.234 345.98 46.478C345.573 46.3967 345.044 46.3153 344.394 46.234C343.743 46.1527 343.092 46.112 342.442 46.112C340.571 46.112 338.924 46.3153 337.501 46.722C336.077 47.088 334.898 47.5353 333.963 48.064ZM329.083 54.896L333.963 55.628V70.878C333.759 70.9593 333.454 71.0407 333.048 71.122C332.641 71.244 332.194 71.305 331.706 71.305C330.852 71.305 330.201 71.1423 329.754 70.817C329.306 70.451 329.083 69.8817 329.083 69.109V54.896ZM359.062 64.717C358.371 63.4157 357.537 61.667 356.561 59.471C355.585 57.2343 354.568 54.7537 353.511 52.029C352.494 49.2637 351.518 46.4577 350.583 43.611C350.868 43.2043 351.234 42.879 351.681 42.635C352.169 42.391 352.677 42.269 353.206 42.269C353.897 42.269 354.467 42.452 354.914 42.818C355.361 43.184 355.727 43.794 356.012 44.648C357.232 48.064 358.513 51.4597 359.855 54.835C361.197 58.2103 362.681 61.7077 364.308 65.327H364.552C365.406 63.619 366.301 61.484 367.236 58.922C368.171 56.36 369.066 53.6557 369.92 50.809C370.774 47.9623 371.486 45.2783 372.055 42.757C372.34 42.635 372.645 42.5333 372.97 42.452C373.336 42.33 373.722 42.269 374.129 42.269C374.82 42.269 375.39 42.452 375.837 42.818C376.284 43.1433 376.508 43.6517 376.508 44.343C376.508 44.9937 376.325 46.0917 375.959 47.637C375.593 49.1417 375.085 50.9107 374.434 52.944C373.824 54.9367 373.092 57.0717 372.238 59.349C371.425 61.5857 370.53 63.802 369.554 65.998C368.619 68.1533 367.663 70.1053 366.687 71.854C364.816 75.3107 363.108 77.954 361.563 79.784C360.018 81.6547 358.594 82.59 357.293 82.59C356.358 82.59 355.626 82.346 355.097 81.858C354.609 81.37 354.304 80.8007 354.182 80.15C355.077 79.3773 356.073 78.3403 357.171 77.039C358.31 75.7783 359.387 74.3957 360.404 72.891C361.461 71.427 362.315 70.024 362.966 68.682C362.275 68.4787 361.624 68.1127 361.014 67.584C360.445 67.0553 359.794 66.0997 359.062 64.717ZM405.133 61.362C404.848 61.5653 404.462 61.7483 403.974 61.911C403.526 62.0737 403.018 62.155 402.449 62.155C401.798 62.155 401.208 62.0533 400.68 61.85C400.192 61.6467 399.846 61.3213 399.643 60.874C397.487 56.3193 395.596 52.151 393.97 48.369C392.384 44.587 391.103 41.4557 390.127 38.975H389.883C389.761 42.025 389.618 44.8717 389.456 47.515C389.334 50.1583 389.191 52.7203 389.029 55.201C388.866 57.641 388.703 60.1623 388.541 62.765C388.419 65.327 388.256 68.072 388.053 71C387.809 71.0813 387.483 71.1627 387.077 71.244C386.711 71.3253 386.304 71.366 385.857 71.366C384.962 71.366 384.332 71.183 383.966 70.817C383.6 70.4103 383.417 69.8817 383.417 69.231C383.417 68.743 383.457 67.6247 383.539 65.876C383.661 64.0867 383.783 61.911 383.905 59.349C384.067 56.787 384.25 54.0623 384.454 51.175C384.657 48.247 384.86 45.38 385.064 42.574C385.308 39.7273 385.531 37.1653 385.735 34.888C386.06 34.6033 386.528 34.339 387.138 34.095C387.748 33.851 388.439 33.729 389.212 33.729C390.147 33.729 390.94 33.912 391.591 34.278C392.241 34.644 392.75 35.2133 393.116 35.986C394.173 38.06 395.23 40.317 396.288 42.757C397.345 45.197 398.382 47.637 399.399 50.077C400.415 52.517 401.391 54.8147 402.327 56.97H402.571C404.36 52.6593 406.129 48.5113 407.878 44.526C409.667 40.5407 411.172 37.145 412.392 34.339C412.758 34.1357 413.225 33.9933 413.795 33.912C414.364 33.79 414.893 33.729 415.381 33.729C416.316 33.729 417.048 33.8917 417.577 34.217C418.146 34.5017 418.512 34.9897 418.675 35.681C418.837 36.3723 419.02 37.5517 419.224 39.219C419.427 40.8863 419.63 42.8587 419.834 45.136C420.037 47.3727 420.22 49.7313 420.383 52.212C420.586 54.6927 420.769 57.1327 420.932 59.532C421.094 61.9313 421.237 64.107 421.359 66.059C421.521 67.9703 421.623 69.4953 421.664 70.634C421.298 70.878 420.911 71.061 420.505 71.183C420.098 71.305 419.63 71.366 419.102 71.366C418.492 71.366 417.943 71.2237 417.455 70.939C417.007 70.6137 416.743 70.0443 416.662 69.231C416.418 65.2863 416.174 61.4027 415.93 57.58C415.726 53.7167 415.543 50.1787 415.381 46.966C415.218 43.7533 415.076 41.1303 414.954 39.097H414.71C413.815 41.3337 412.595 44.221 411.05 47.759C409.504 51.2563 407.532 55.7907 405.133 61.362ZM440.834 67.828C442.542 67.828 443.945 67.6653 445.043 67.34C446.182 66.974 446.995 66.6283 447.483 66.303V57.458L439.919 58.251C437.805 58.4137 436.239 58.8813 435.222 59.654C434.206 60.4267 433.697 61.545 433.697 63.009C433.697 64.5137 434.287 65.693 435.466 66.547C436.686 67.401 438.476 67.828 440.834 67.828ZM440.773 42.025C444.311 42.025 447.117 42.818 449.191 44.404C451.265 45.99 452.302 48.491 452.302 51.907V66.364C452.302 67.2587 452.119 67.95 451.753 68.438C451.428 68.8853 450.92 69.3123 450.228 69.719C449.252 70.2477 447.951 70.7357 446.324 71.183C444.698 71.6303 442.868 71.854 440.834 71.854C437.012 71.854 434.043 71.1017 431.928 69.597C429.854 68.0923 428.817 65.9167 428.817 63.07C428.817 60.4267 429.692 58.4137 431.44 57.031C433.23 55.6077 435.69 54.7537 438.821 54.469L447.483 53.615V51.907C447.483 49.8737 446.873 48.3893 445.653 47.454C444.433 46.5187 442.786 46.051 440.712 46.051C439.045 46.051 437.439 46.295 435.893 46.783C434.389 47.271 433.047 47.82 431.867 48.43C431.542 48.1453 431.237 47.82 430.952 47.454C430.708 47.0473 430.586 46.6407 430.586 46.234C430.586 45.1767 431.176 44.3633 432.355 43.794C433.453 43.2247 434.714 42.7977 436.137 42.513C437.601 42.1877 439.147 42.025 440.773 42.025ZM461.271 54.896H466.151V63.314C466.151 64.9407 466.618 66.0997 467.554 66.791C468.489 67.4417 469.77 67.767 471.397 67.767C472.088 67.767 472.861 67.645 473.715 67.401C474.569 67.157 475.28 66.8723 475.85 66.547C476.094 66.791 476.317 67.096 476.521 67.462C476.724 67.828 476.826 68.255 476.826 68.743C476.826 69.6377 476.297 70.3697 475.24 70.939C474.182 71.5083 472.718 71.793 470.848 71.793C468.001 71.793 465.683 71.1627 463.894 69.902C462.145 68.6413 461.271 66.547 461.271 63.619V54.896ZM463.772 47.454V43.428H476.155C476.277 43.5907 476.399 43.855 476.521 44.221C476.643 44.587 476.704 44.9733 476.704 45.38C476.704 46.0307 476.541 46.539 476.216 46.905C475.89 47.271 475.443 47.454 474.874 47.454H463.772ZM466.151 56.726H461.271V34.644C461.474 34.5627 461.779 34.4813 462.186 34.4C462.633 34.278 463.101 34.217 463.589 34.217C464.443 34.217 465.073 34.4 465.48 34.766C465.927 35.0913 466.151 35.6403 466.151 36.413V56.726ZM484.782 60.02L484.538 56.177L502.96 53.676C502.797 51.4393 502.024 49.6093 500.642 48.186C499.259 46.722 497.348 45.99 494.908 45.99C492.386 45.99 490.292 46.905 488.625 48.735C486.998 50.5243 486.185 53.1067 486.185 56.482V57.824C486.469 61.0773 487.527 63.558 489.357 65.266C491.227 66.9333 493.769 67.767 496.982 67.767C498.69 67.767 500.235 67.4823 501.618 66.913C503 66.3437 504.098 65.7337 504.912 65.083C505.359 65.3677 505.705 65.7133 505.949 66.12C506.233 66.486 506.376 66.913 506.376 67.401C506.376 68.1737 505.928 68.9057 505.034 69.597C504.18 70.2477 503.021 70.7763 501.557 71.183C500.133 71.5897 498.527 71.793 496.738 71.793C493.606 71.793 490.882 71.2237 488.564 70.085C486.286 68.9463 484.517 67.2587 483.257 65.022C482.037 62.7447 481.427 59.9793 481.427 56.726C481.427 54.408 481.752 52.3543 482.403 50.565C483.094 48.735 484.029 47.1897 485.209 45.929C486.429 44.6683 487.872 43.7127 489.54 43.062C491.207 42.3707 493.017 42.025 494.969 42.025C497.449 42.025 499.625 42.5537 501.496 43.611C503.407 44.6683 504.891 46.1527 505.949 48.064C507.047 49.9347 507.596 52.09 507.596 54.53C507.596 55.4247 507.392 56.0753 506.986 56.482C506.579 56.848 506.01 57.0717 505.278 57.153L484.782 60.02Z" fill="#F5F7F4"/>
</svg>
