<svg width="512" height="104" viewBox="0 0 512 104" fill="none" xmlns="http://www.w3.org/2000/svg">
<path d="M6.22015 70.2009C5.64429 71.522 6.6124 73.0001 8.05354 73.0001H132.727C134.223 73.0001 135.189 71.4186 134.507 70.0877L106.066 14.6045C105.719 13.9281 105.019 13.5066 104.259 13.5171L70.211 13.9835C69.4666 13.9937 68.7929 14.4197 68.4392 15.0748C65.5273 20.4687 62.9678 22.1908 57.7355 22.9661C57.5805 22.989 57.4186 22.9926 57.2627 22.9766C51.5137 22.3863 49.0813 20.5302 46.56 15.6327C46.2071 14.9471 45.5089 14.5001 44.7378 14.5001H31.81C31.0144 14.5001 30.2945 14.9716 29.9766 15.7009L6.22015 70.2009Z" fill="#D9D9D9"/>
<path d="M7 77.0001C5.89543 77.0001 5 77.8955 5 79.0001V97.0001C5 98.1046 5.89543 99.0001 7 99.0001H134C135.105 99.0001 136 98.1046 136 97.0001V79.0001C136 77.8955 135.105 77.0001 134 77.0001H7Z" fill="#B70F1E"/>
<path fill-rule="evenodd" clip-rule="evenodd" d="M1.15702 72.6275C1.05339 72.8734 1 73.1375 1 73.4043V101C1 102.105 1.89543 103 3 103H138C139.105 103 140 102.105 140 101V77.8233C140 77.0925 140.592 76.5001 141.323 76.5001V76.5001C142.315 76.5001 142.955 75.4485 142.498 74.5677L110.574 13.0001C109.902 11.685 109.478 10.9981 108.5 10.0001C107.861 9.48944 107.201 9.29115 105.647 9.09339C105.549 9.08099 105.451 9.07629 105.352 9.07875L68.5 10.0001C68.0813 9.98295 63.4468 2.97745 58 3.00005C52.9408 3.02105 49.6964 4.50783 47.0887 8.93109C46.7085 9.57597 46.0296 10.0001 45.281 10.0001H30.5C28.3416 10.2782 27.4352 10.7897 26.5 12.5001L1.15702 72.6275ZM7 99.0001C5.89543 99.0001 5 98.1046 5 97.0001V79.0001C5 77.8955 5.89543 77.0001 7 77.0001H134C135.105 77.0001 136 77.8955 136 79.0001V97.0001C136 98.1046 135.105 99.0001 134 99.0001H7ZM134.507 70.0877C135.189 71.4186 134.223 73.0001 132.727 73.0001H8.05354C6.6124 73.0001 5.64429 71.522 6.22015 70.2009L29.9766 15.7009C30.2945 14.9716 31.0144 14.5001 31.81 14.5001H44.7378C45.5089 14.5001 46.2071 14.9471 46.56 15.6327C49.0813 20.5302 51.5137 22.3863 57.2627 22.9766C57.4186 22.9926 57.5805 22.989 57.7355 22.9661C62.9678 22.1908 65.5273 20.4687 68.4392 15.0748C68.7929 14.4197 69.4666 13.9937 70.211 13.9835L104.259 13.5171C105.019 13.5066 105.719 13.9281 106.066 14.6045L134.507 70.0877Z" fill="black"/>
<path d="M32 31.0001L104.5 30.0001M108.5 10.0001C109.478 10.9981 109.902 11.685 110.574 13.0001L142.498 74.5677C142.955 75.4485 142.315 76.5001 141.323 76.5001V76.5001C140.592 76.5001 140 77.0925 140 77.8233V101C140 102.105 139.105 103 138 103H3C1.89543 103 1 102.105 1 101V73.4043C1 73.1375 1.05339 72.8734 1.15702 72.6275L26.5 12.5001C27.4352 10.7897 28.3416 10.2782 30.5 10.0001H45.281C46.0296 10.0001 46.7085 9.57597 47.0887 8.93109C49.6964 4.50783 52.9408 3.02105 58 3.00005C63.4468 2.97745 68.0813 9.98295 68.5 10.0001L105.352 9.07875C105.451 9.07629 105.549 9.08099 105.647 9.09339C107.201 9.29115 107.861 9.48944 108.5 10.0001ZM31.81 14.5001H44.7378C45.5089 14.5001 46.2071 14.9471 46.56 15.6327C49.0813 20.5302 51.5137 22.3863 57.2627 22.9766C57.4186 22.9926 57.5805 22.989 57.7355 22.9661C62.9678 22.1908 65.5273 20.4687 68.4392 15.0748C68.7929 14.4197 69.4666 13.9937 70.211 13.9835L104.259 13.5171C105.019 13.5066 105.719 13.9281 106.066 14.6045L134.507 70.0877C135.189 71.4186 134.223 73.0001 132.727 73.0001H8.05354C6.6124 73.0001 5.64429 71.522 6.22015 70.2009L29.9766 15.7009C30.2945 14.9716 31.0144 14.5001 31.81 14.5001ZM136 79.0001V97.0001C136 98.1046 135.105 99.0001 134 99.0001H7C5.89543 99.0001 5 98.1046 5 97.0001V79.0001C5 77.8955 5.89543 77.0001 7 77.0001H134C135.105 77.0001 136 77.8955 136 79.0001Z" stroke="black"/>
<path d="M109.5 39L40.5 39.5C32.3545 39.4196 29.4354 39.6287 27.5 40.5" stroke="black"/>
<path d="M24 49C26.3341 48.1885 29.2638 47.9754 32 48H39L113.5 47.5" stroke="black"/>
<path d="M20 59.0001C21.3297 57.6102 27.2423 56.8839 33.5 57.0001C66.4993 56.8048 84.5007 56.6953 117.5 56.5001" stroke="black"/>
<path d="M17 67.5001C21.876 65.9949 23.6414 65.598 30.5 65.5L122 65.0001" stroke="black"/>
<path d="M32 31L103.87 30.0018C103.956 30.0006 104.042 30.0106 104.126 30.0316L106 30.5" stroke="black"/>
<path d="M50.6384 10.6494C51.4822 9.12307 52.5007 8.25531 54.1335 7.64758C55.6597 7.07957 57.3419 6.97981 58.9289 7.3447C60.9431 7.80783 62.0989 8.70788 62.9437 10.5353C63.3794 11.4779 63.5 12.5285 63.5 13.5669C63.5 14.8441 63.3521 16.1723 62.606 17.2089C61.9357 18.1402 61.0882 18.6785 59.8318 19.1105C58.9607 19.41 58.034 19.5 57.1129 19.5C55.3947 19.5 53.6226 19.2068 52.264 18.155C51.5801 17.6255 51.0841 17.0599 50.6621 16.351C50.1537 15.497 50 14.4884 50 13.4945C50 12.5077 50.161 11.5131 50.6384 10.6494Z" fill="#B70F1E" stroke="black"/>
<path d="M181.535 58.362C181.25 58.5653 180.864 58.7483 180.376 58.911C179.929 59.0737 179.42 59.155 178.851 59.155C178.2 59.155 177.611 59.0533 177.082 58.85C176.594 58.6467 176.248 58.3213 176.045 57.874C173.89 53.3193 171.999 49.151 170.372 45.369C168.786 41.587 167.505 38.4557 166.529 35.975H166.285C166.163 39.025 166.021 41.8717 165.858 44.515C165.736 47.1583 165.594 49.7203 165.431 52.201C165.268 54.641 165.106 57.1623 164.943 59.765C164.821 62.327 164.658 65.072 164.455 68C164.211 68.0813 163.886 68.1627 163.479 68.244C163.113 68.3253 162.706 68.366 162.259 68.366C161.364 68.366 160.734 68.183 160.368 67.817C160.002 67.4103 159.819 66.8817 159.819 66.231C159.819 65.743 159.86 64.6247 159.941 62.876C160.063 61.0867 160.185 58.911 160.307 56.349C160.47 53.787 160.653 51.0623 160.856 48.175C161.059 45.247 161.263 42.38 161.466 39.574C161.71 36.7273 161.934 34.1653 162.137 31.888C162.462 31.6033 162.93 31.339 163.54 31.095C164.15 30.851 164.841 30.729 165.614 30.729C166.549 30.729 167.342 30.912 167.993 31.278C168.644 31.644 169.152 32.2133 169.518 32.986C170.575 35.06 171.633 37.317 172.69 39.757C173.747 42.197 174.784 44.637 175.801 47.077C176.818 49.517 177.794 51.8147 178.729 53.97H178.973C180.762 49.6593 182.531 45.5113 184.28 41.526C186.069 37.5407 187.574 34.145 188.794 31.339C189.16 31.1357 189.628 30.9933 190.197 30.912C190.766 30.79 191.295 30.729 191.783 30.729C192.718 30.729 193.45 30.8917 193.979 31.217C194.548 31.5017 194.914 31.9897 195.077 32.681C195.24 33.3723 195.423 34.5517 195.626 36.219C195.829 37.8863 196.033 39.8587 196.236 42.136C196.439 44.3727 196.622 46.7313 196.785 49.212C196.988 51.6927 197.171 54.1327 197.334 56.532C197.497 58.9313 197.639 61.107 197.761 63.059C197.924 64.9703 198.025 66.4953 198.066 67.634C197.7 67.878 197.314 68.061 196.907 68.183C196.5 68.305 196.033 68.366 195.504 68.366C194.894 68.366 194.345 68.2237 193.857 67.939C193.41 67.6137 193.145 67.0443 193.064 66.231C192.82 62.2863 192.576 58.4027 192.332 54.58C192.129 50.7167 191.946 47.1787 191.783 43.966C191.62 40.7533 191.478 38.1303 191.356 36.097H191.112C190.217 38.3337 188.997 41.221 187.452 44.759C185.907 48.2563 183.934 52.7907 181.535 58.362ZM208.702 57.02L208.458 53.177L226.88 50.676C226.718 48.4393 225.945 46.6093 224.562 45.186C223.18 43.722 221.268 42.99 218.828 42.99C216.307 42.99 214.213 43.905 212.545 45.735C210.919 47.5243 210.105 50.1067 210.105 53.482V54.824C210.39 58.0773 211.447 60.558 213.277 62.266C215.148 63.9333 217.69 64.767 220.902 64.767C222.61 64.767 224.156 64.4823 225.538 63.913C226.921 63.3437 228.019 62.7337 228.832 62.083C229.28 62.3677 229.625 62.7133 229.869 63.12C230.154 63.486 230.296 63.913 230.296 64.401C230.296 65.1737 229.849 65.9057 228.954 66.597C228.1 67.2477 226.941 67.7763 225.477 68.183C224.054 68.5897 222.448 68.793 220.658 68.793C217.527 68.793 214.802 68.2237 212.484 67.085C210.207 65.9463 208.438 64.2587 207.177 62.022C205.957 59.7447 205.347 56.9793 205.347 53.726C205.347 51.408 205.673 49.3543 206.323 47.565C207.015 45.735 207.95 44.1897 209.129 42.929C210.349 41.6683 211.793 40.7127 213.46 40.062C215.128 39.3707 216.937 39.025 218.889 39.025C221.37 39.025 223.546 39.5537 225.416 40.611C227.328 41.6683 228.812 43.1527 229.869 45.064C230.967 46.9347 231.516 49.09 231.516 51.53C231.516 52.4247 231.313 53.0753 230.906 53.482C230.5 53.848 229.93 54.0717 229.198 54.153L208.702 57.02ZM261.318 48.48V55.495H256.438V48.846C256.438 46.8533 255.849 45.3893 254.669 44.454C253.531 43.5187 252.006 43.051 250.094 43.051C248.834 43.051 247.614 43.2543 246.434 43.661C245.255 44.0677 244.259 44.5353 243.445 45.064V55.495H238.565V45.308C238.565 44.4947 238.728 43.8033 239.053 43.234C239.419 42.6647 240.029 42.1157 240.883 41.587C241.981 40.8957 243.364 40.306 245.031 39.818C246.739 39.2893 248.447 39.025 250.155 39.025C252.229 39.025 254.059 39.3503 255.645 40.001C257.231 40.611 258.411 41.465 259.183 42.563C259.427 42.807 259.631 43.0307 259.793 43.234C259.956 43.4373 260.119 43.7017 260.281 44.027C260.566 44.515 260.81 45.1453 261.013 45.918C261.217 46.6907 261.318 47.5447 261.318 48.48ZM279.191 48.602V55.495H274.311V48.846C274.311 46.8533 273.742 45.3893 272.603 44.454C271.465 43.5187 269.94 43.051 268.028 43.051C266.605 43.051 265.222 43.356 263.88 43.966C262.579 44.5353 261.4 45.369 260.342 46.467L258.39 42.929C259.448 41.8717 260.83 40.9567 262.538 40.184C264.246 39.4113 266.198 39.025 268.394 39.025C270.59 39.025 272.481 39.3707 274.067 40.062C275.694 40.7533 276.955 41.8107 277.849 43.234C278.744 44.6573 279.191 46.4467 279.191 48.602ZM238.565 52.262H243.445V67.878C243.242 67.9593 242.937 68.0407 242.53 68.122C242.124 68.244 241.676 68.305 241.188 68.305C240.334 68.305 239.684 68.1423 239.236 67.817C238.789 67.451 238.565 66.8817 238.565 66.109V52.262ZM256.438 52.262H261.318V67.878C261.115 67.9593 260.79 68.0407 260.342 68.122C259.936 68.244 259.509 68.305 259.061 68.305C258.167 68.305 257.496 68.1423 257.048 67.817C256.642 67.451 256.438 66.8817 256.438 66.109V52.262ZM274.311 52.262H279.191V67.878C278.988 67.9593 278.663 68.0407 278.215 68.122C277.809 68.244 277.382 68.305 276.934 68.305C276.04 68.305 275.369 68.1423 274.921 67.817C274.515 67.451 274.311 66.8817 274.311 66.109V52.262ZM314.535 53.909C314.535 56.9183 313.966 59.5413 312.827 61.778C311.688 64.0147 310.082 65.743 308.008 66.963C305.934 68.183 303.494 68.793 300.688 68.793C297.882 68.793 295.422 68.183 293.307 66.963C291.233 65.743 289.627 64.0147 288.488 61.778C287.349 59.5413 286.78 56.9183 286.78 53.909C286.78 50.859 287.349 48.236 288.488 46.04C289.667 43.8033 291.294 42.075 293.368 40.855C295.483 39.635 297.923 39.025 300.688 39.025C303.453 39.025 305.873 39.635 307.947 40.855C310.021 42.075 311.627 43.8033 312.766 46.04C313.945 48.236 314.535 50.859 314.535 53.909ZM300.688 43.051C297.963 43.051 295.788 44.027 294.161 45.979C292.575 47.8903 291.782 50.5337 291.782 53.909C291.782 57.325 292.555 59.9887 294.1 61.9C295.686 63.8113 297.882 64.767 300.688 64.767C303.453 64.767 305.609 63.8113 307.154 61.9C308.74 59.948 309.533 57.2843 309.533 53.909C309.533 50.5337 308.74 47.8903 307.154 45.979C305.609 44.027 303.453 43.051 300.688 43.051ZM326.963 45.064V54.702H322.083V45.43C322.083 44.4947 322.245 43.7627 322.571 43.234C322.937 42.6647 323.526 42.1157 324.34 41.587C325.397 40.8957 326.841 40.306 328.671 39.818C330.501 39.2893 332.534 39.025 334.771 39.025C338.024 39.025 339.651 39.8383 339.651 41.465C339.651 41.8717 339.59 42.258 339.468 42.624C339.346 42.9493 339.183 43.234 338.98 43.478C338.573 43.3967 338.044 43.3153 337.394 43.234C336.743 43.1527 336.092 43.112 335.442 43.112C333.571 43.112 331.924 43.3153 330.501 43.722C329.077 44.088 327.898 44.5353 326.963 45.064ZM322.083 51.896L326.963 52.628V67.878C326.759 67.9593 326.454 68.0407 326.048 68.122C325.641 68.244 325.194 68.305 324.706 68.305C323.852 68.305 323.201 68.1423 322.754 67.817C322.306 67.451 322.083 66.8817 322.083 66.109V51.896ZM352.062 61.717C351.371 60.4157 350.537 58.667 349.561 56.471C348.585 54.2343 347.568 51.7537 346.511 49.029C345.494 46.2637 344.518 43.4577 343.583 40.611C343.868 40.2043 344.234 39.879 344.681 39.635C345.169 39.391 345.677 39.269 346.206 39.269C346.897 39.269 347.467 39.452 347.914 39.818C348.361 40.184 348.727 40.794 349.012 41.648C350.232 45.064 351.513 48.4597 352.855 51.835C354.197 55.2103 355.681 58.7077 357.308 62.327H357.552C358.406 60.619 359.301 58.484 360.236 55.922C361.171 53.36 362.066 50.6557 362.92 47.809C363.774 44.9623 364.486 42.2783 365.055 39.757C365.34 39.635 365.645 39.5333 365.97 39.452C366.336 39.33 366.722 39.269 367.129 39.269C367.82 39.269 368.39 39.452 368.837 39.818C369.284 40.1433 369.508 40.6517 369.508 41.343C369.508 41.9937 369.325 43.0917 368.959 44.637C368.593 46.1417 368.085 47.9107 367.434 49.944C366.824 51.9367 366.092 54.0717 365.238 56.349C364.425 58.5857 363.53 60.802 362.554 62.998C361.619 65.1533 360.663 67.1053 359.687 68.854C357.816 72.3107 356.108 74.954 354.563 76.784C353.018 78.6547 351.594 79.59 350.293 79.59C349.358 79.59 348.626 79.346 348.097 78.858C347.609 78.37 347.304 77.8007 347.182 77.15C348.077 76.3773 349.073 75.3403 350.171 74.039C351.31 72.7783 352.387 71.3957 353.404 69.891C354.461 68.427 355.315 67.024 355.966 65.682C355.275 65.4787 354.624 65.1127 354.014 64.584C353.445 64.0553 352.794 63.0997 352.062 61.717ZM398.133 58.362C397.848 58.5653 397.462 58.7483 396.974 58.911C396.526 59.0737 396.018 59.155 395.449 59.155C394.798 59.155 394.208 59.0533 393.68 58.85C393.192 58.6467 392.846 58.3213 392.643 57.874C390.487 53.3193 388.596 49.151 386.97 45.369C385.384 41.587 384.103 38.4557 383.127 35.975H382.883C382.761 39.025 382.618 41.8717 382.456 44.515C382.334 47.1583 382.191 49.7203 382.029 52.201C381.866 54.641 381.703 57.1623 381.541 59.765C381.419 62.327 381.256 65.072 381.053 68C380.809 68.0813 380.483 68.1627 380.077 68.244C379.711 68.3253 379.304 68.366 378.857 68.366C377.962 68.366 377.332 68.183 376.966 67.817C376.6 67.4103 376.417 66.8817 376.417 66.231C376.417 65.743 376.457 64.6247 376.539 62.876C376.661 61.0867 376.783 58.911 376.905 56.349C377.067 53.787 377.25 51.0623 377.454 48.175C377.657 45.247 377.86 42.38 378.064 39.574C378.308 36.7273 378.531 34.1653 378.735 31.888C379.06 31.6033 379.528 31.339 380.138 31.095C380.748 30.851 381.439 30.729 382.212 30.729C383.147 30.729 383.94 30.912 384.591 31.278C385.241 31.644 385.75 32.2133 386.116 32.986C387.173 35.06 388.23 37.317 389.288 39.757C390.345 42.197 391.382 44.637 392.399 47.077C393.415 49.517 394.391 51.8147 395.327 53.97H395.571C397.36 49.6593 399.129 45.5113 400.878 41.526C402.667 37.5407 404.172 34.145 405.392 31.339C405.758 31.1357 406.225 30.9933 406.795 30.912C407.364 30.79 407.893 30.729 408.381 30.729C409.316 30.729 410.048 30.8917 410.577 31.217C411.146 31.5017 411.512 31.9897 411.675 32.681C411.837 33.3723 412.02 34.5517 412.224 36.219C412.427 37.8863 412.63 39.8587 412.834 42.136C413.037 44.3727 413.22 46.7313 413.383 49.212C413.586 51.6927 413.769 54.1327 413.932 56.532C414.094 58.9313 414.237 61.107 414.359 63.059C414.521 64.9703 414.623 66.4953 414.664 67.634C414.298 67.878 413.911 68.061 413.505 68.183C413.098 68.305 412.63 68.366 412.102 68.366C411.492 68.366 410.943 68.2237 410.455 67.939C410.007 67.6137 409.743 67.0443 409.662 66.231C409.418 62.2863 409.174 58.4027 408.93 54.58C408.726 50.7167 408.543 47.1787 408.381 43.966C408.218 40.7533 408.076 38.1303 407.954 36.097H407.71C406.815 38.3337 405.595 41.221 404.05 44.759C402.504 48.2563 400.532 52.7907 398.133 58.362ZM433.834 64.828C435.542 64.828 436.945 64.6653 438.043 64.34C439.182 63.974 439.995 63.6283 440.483 63.303V54.458L432.919 55.251C430.805 55.4137 429.239 55.8813 428.222 56.654C427.206 57.4267 426.697 58.545 426.697 60.009C426.697 61.5137 427.287 62.693 428.466 63.547C429.686 64.401 431.476 64.828 433.834 64.828ZM433.773 39.025C437.311 39.025 440.117 39.818 442.191 41.404C444.265 42.99 445.302 45.491 445.302 48.907V63.364C445.302 64.2587 445.119 64.95 444.753 65.438C444.428 65.8853 443.92 66.3123 443.228 66.719C442.252 67.2477 440.951 67.7357 439.324 68.183C437.698 68.6303 435.868 68.854 433.834 68.854C430.012 68.854 427.043 68.1017 424.928 66.597C422.854 65.0923 421.817 62.9167 421.817 60.07C421.817 57.4267 422.692 55.4137 424.44 54.031C426.23 52.6077 428.69 51.7537 431.821 51.469L440.483 50.615V48.907C440.483 46.8737 439.873 45.3893 438.653 44.454C437.433 43.5187 435.786 43.051 433.712 43.051C432.045 43.051 430.439 43.295 428.893 43.783C427.389 44.271 426.047 44.82 424.867 45.43C424.542 45.1453 424.237 44.82 423.952 44.454C423.708 44.0473 423.586 43.6407 423.586 43.234C423.586 42.1767 424.176 41.3633 425.355 40.794C426.453 40.2247 427.714 39.7977 429.137 39.513C430.601 39.1877 432.147 39.025 433.773 39.025ZM454.271 51.896H459.151V60.314C459.151 61.9407 459.618 63.0997 460.554 63.791C461.489 64.4417 462.77 64.767 464.397 64.767C465.088 64.767 465.861 64.645 466.715 64.401C467.569 64.157 468.28 63.8723 468.85 63.547C469.094 63.791 469.317 64.096 469.521 64.462C469.724 64.828 469.826 65.255 469.826 65.743C469.826 66.6377 469.297 67.3697 468.24 67.939C467.182 68.5083 465.718 68.793 463.848 68.793C461.001 68.793 458.683 68.1627 456.894 66.902C455.145 65.6413 454.271 63.547 454.271 60.619V51.896ZM456.772 44.454V40.428H469.155C469.277 40.5907 469.399 40.855 469.521 41.221C469.643 41.587 469.704 41.9733 469.704 42.38C469.704 43.0307 469.541 43.539 469.216 43.905C468.89 44.271 468.443 44.454 467.874 44.454H456.772ZM459.151 53.726H454.271V31.644C454.474 31.5627 454.779 31.4813 455.186 31.4C455.633 31.278 456.101 31.217 456.589 31.217C457.443 31.217 458.073 31.4 458.48 31.766C458.927 32.0913 459.151 32.6403 459.151 33.413V53.726ZM477.782 57.02L477.538 53.177L495.96 50.676C495.797 48.4393 495.024 46.6093 493.642 45.186C492.259 43.722 490.348 42.99 487.908 42.99C485.386 42.99 483.292 43.905 481.625 45.735C479.998 47.5243 479.185 50.1067 479.185 53.482V54.824C479.469 58.0773 480.527 60.558 482.357 62.266C484.227 63.9333 486.769 64.767 489.982 64.767C491.69 64.767 493.235 64.4823 494.618 63.913C496 63.3437 497.098 62.7337 497.912 62.083C498.359 62.3677 498.705 62.7133 498.949 63.12C499.233 63.486 499.376 63.913 499.376 64.401C499.376 65.1737 498.928 65.9057 498.034 66.597C497.18 67.2477 496.021 67.7763 494.557 68.183C493.133 68.5897 491.527 68.793 489.738 68.793C486.606 68.793 483.882 68.2237 481.564 67.085C479.286 65.9463 477.517 64.2587 476.257 62.022C475.037 59.7447 474.427 56.9793 474.427 53.726C474.427 51.408 474.752 49.3543 475.403 47.565C476.094 45.735 477.029 44.1897 478.209 42.929C479.429 41.6683 480.872 40.7127 482.54 40.062C484.207 39.3707 486.017 39.025 487.969 39.025C490.449 39.025 492.625 39.5537 494.496 40.611C496.407 41.6683 497.891 43.1527 498.949 45.064C500.047 46.9347 500.596 49.09 500.596 51.53C500.596 52.4247 500.392 53.0753 499.986 53.482C499.579 53.848 499.01 54.0717 498.278 54.153L477.782 57.02Z" fill="black"/>
</svg>
