<svg width="144" height="102" viewBox="0 0 144 102" fill="none" xmlns="http://www.w3.org/2000/svg">
<path d="M6.22015 68.2009C5.64429 69.522 6.6124 71.0001 8.05354 71.0001H132.727C134.223 71.0001 135.189 69.4186 134.507 68.0877L106.066 12.6045C105.719 11.9281 105.019 11.5066 104.259 11.5171L70.211 11.9835C69.4666 11.9937 68.7929 12.4197 68.4392 13.0748C65.5273 18.4687 62.9678 20.1908 57.7355 20.9661C57.5805 20.989 57.4186 20.9926 57.2627 20.9766C51.5137 20.3863 49.0813 18.5302 46.56 13.6327C46.2071 12.9471 45.5089 12.5001 44.7378 12.5001H31.81C31.0144 12.5001 30.2945 12.9716 29.9766 13.7009L6.22015 68.2009Z" fill="#D9D9D9"/>
<path d="M7 75.0001C5.89543 75.0001 5 75.8955 5 77.0001V95.0001C5 96.1046 5.89543 97.0001 7 97.0001H134C135.105 97.0001 136 96.1046 136 95.0001V77.0001C136 75.8955 135.105 75.0001 134 75.0001H7Z" fill="#B70F1E"/>
<path fill-rule="evenodd" clip-rule="evenodd" d="M1.15702 70.6275C1.05339 70.8734 1 71.1375 1 71.4043V99.0001C1 100.105 1.89543 101 3 101H138C139.105 101 140 100.105 140 99.0001V75.8233C140 75.0925 140.592 74.5001 141.323 74.5001V74.5001C142.315 74.5001 142.955 73.4485 142.498 72.5677L110.574 11.0001C109.902 9.68499 109.478 8.99807 108.5 8.00006C107.861 7.48944 107.201 7.29115 105.647 7.09339C105.549 7.08099 105.451 7.07629 105.352 7.07875L68.5 8.00005C68.0813 7.98295 63.4468 0.977455 58 1.00005C52.9408 1.02105 49.6964 2.50783 47.0887 6.93109C46.7085 7.57597 46.0296 8.00005 45.281 8.00005H30.5C28.3416 8.27817 27.4352 8.78973 26.5 10.5001L1.15702 70.6275ZM7 97.0001C5.89543 97.0001 5 96.1046 5 95.0001V77.0001C5 75.8955 5.89543 75.0001 7 75.0001H134C135.105 75.0001 136 75.8955 136 77.0001V95.0001C136 96.1046 135.105 97.0001 134 97.0001H7ZM134.507 68.0877C135.189 69.4186 134.223 71.0001 132.727 71.0001H8.05354C6.6124 71.0001 5.64429 69.522 6.22015 68.2009L29.9766 13.7009C30.2945 12.9716 31.0144 12.5001 31.81 12.5001H44.7378C45.5089 12.5001 46.2071 12.9471 46.56 13.6327C49.0813 18.5302 51.5137 20.3863 57.2627 20.9766C57.4186 20.9926 57.5805 20.989 57.7355 20.9661C62.9678 20.1908 65.5273 18.4687 68.4392 13.0748C68.7929 12.4197 69.4666 11.9937 70.211 11.9835L104.259 11.5171C105.019 11.5066 105.719 11.9281 106.066 12.6045L134.507 68.0877Z" fill="black"/>
<path d="M6.22015 68.2009C5.64429 69.522 6.6124 71.0001 8.05354 71.0001H132.727C134.223 71.0001 135.189 69.4186 134.507 68.0877L106.066 12.6045C105.719 11.9281 105.019 11.5066 104.259 11.5171L70.211 11.9835C69.4666 11.9937 68.7929 12.4197 68.4392 13.0748C65.5273 18.4687 62.9678 20.1908 57.7355 20.9661C57.5805 20.989 57.4186 20.9926 57.2627 20.9766C51.5137 20.3863 49.0813 18.5302 46.56 13.6327C46.2071 12.9471 45.5089 12.5001 44.7378 12.5001H31.81C31.0144 12.5001 30.2945 12.9716 29.9766 13.7009L6.22015 68.2009Z" stroke="black"/>
<path d="M7 75.0001C5.89543 75.0001 5 75.8955 5 77.0001V95.0001C5 96.1046 5.89543 97.0001 7 97.0001H134C135.105 97.0001 136 96.1046 136 95.0001V77.0001C136 75.8955 135.105 75.0001 134 75.0001H7Z" stroke="black"/>
<path fill-rule="evenodd" clip-rule="evenodd" d="M1.15702 70.6275C1.05339 70.8734 1 71.1375 1 71.4043V99.0001C1 100.105 1.89543 101 3 101H138C139.105 101 140 100.105 140 99.0001V75.8233C140 75.0925 140.592 74.5001 141.323 74.5001V74.5001C142.315 74.5001 142.955 73.4485 142.498 72.5677L110.574 11.0001C109.902 9.68499 109.478 8.99807 108.5 8.00006C107.861 7.48944 107.201 7.29115 105.647 7.09339C105.549 7.08099 105.451 7.07629 105.352 7.07875L68.5 8.00005C68.0813 7.98295 63.4468 0.977455 58 1.00005C52.9408 1.02105 49.6964 2.50783 47.0887 6.93109C46.7085 7.57597 46.0296 8.00005 45.281 8.00005H30.5C28.3416 8.27817 27.4352 8.78973 26.5 10.5001L1.15702 70.6275ZM7 97.0001C5.89543 97.0001 5 96.1046 5 95.0001V77.0001C5 75.8955 5.89543 75.0001 7 75.0001H134C135.105 75.0001 136 75.8955 136 77.0001V95.0001C136 96.1046 135.105 97.0001 134 97.0001H7ZM134.507 68.0877C135.189 69.4186 134.223 71.0001 132.727 71.0001H8.05354C6.6124 71.0001 5.64429 69.522 6.22015 68.2009L29.9766 13.7009C30.2945 12.9716 31.0144 12.5001 31.81 12.5001H44.7378C45.5089 12.5001 46.2071 12.9471 46.56 13.6327C49.0813 18.5302 51.5137 20.3863 57.2627 20.9766C57.4186 20.9926 57.5805 20.989 57.7355 20.9661C62.9678 20.1908 65.5273 18.4687 68.4392 13.0748C68.7929 12.4197 69.4666 11.9937 70.211 11.9835L104.259 11.5171C105.019 11.5066 105.719 11.9281 106.066 12.6045L134.507 68.0877Z" stroke="black"/>
<path d="M50.6384 8.64943C51.4822 7.12307 52.5007 6.25531 54.1335 5.64758C55.6597 5.07957 57.3419 4.97981 58.9289 5.3447C60.9431 5.80783 62.0989 6.70788 62.9437 8.53529C63.3794 9.47788 63.5 10.5285 63.5 11.5669C63.5 12.8441 63.3521 14.1723 62.606 15.2089C61.9357 16.1402 61.0882 16.6785 59.8318 17.1105C58.9607 17.41 58.034 17.5 57.1129 17.5C55.3947 17.5 53.6226 17.2068 52.264 16.155C51.5801 15.6255 51.0841 15.0599 50.6621 14.351C50.1537 13.497 50 12.4884 50 11.4945C50 10.5077 50.161 9.51307 50.6384 8.64943Z" fill="#B70F1E" stroke="black"/>
<path d="M31 31.5C31 30.1193 32.1193 29 33.5 29H104.5C105.881 29 107 30.1193 107 31.5V31.5C107 32.8807 105.881 34 104.5 34H33.5C32.1193 34 31 32.8807 31 31.5V31.5Z" fill="black"/>
<path d="M31 31.5C31 30.1193 32.1193 29 33.5 29H104.5C105.881 29 107 30.1193 107 31.5V31.5C107 32.8807 105.881 34 104.5 34H33.5C32.1193 34 31 32.8807 31 31.5V31.5Z" fill="black"/>
<path d="M24 45.5C24 44.1193 25.1193 43 26.5 43H112.5C113.881 43 115 44.1193 115 45.5V45.5C115 46.8807 113.881 48 112.5 48H26.5C25.1193 48 24 46.8807 24 45.5V45.5Z" fill="black"/>
<path d="M24 45.5C24 44.1193 25.1193 43 26.5 43H112.5C113.881 43 115 44.1193 115 45.5V45.5C115 46.8807 113.881 48 112.5 48H26.5C25.1193 48 24 46.8807 24 45.5V45.5Z" fill="black"/>
<path d="M17 59.5C17 58.1193 18.1193 57 19.5 57H118.5C119.881 57 121 58.1193 121 59.5V59.5C121 60.8807 119.881 62 118.5 62H19.5C18.1193 62 17 60.8807 17 59.5V59.5Z" fill="black"/>
<path d="M17 59.5C17 58.1193 18.1193 57 19.5 57H118.5C119.881 57 121 58.1193 121 59.5V59.5C121 60.8807 119.881 62 118.5 62H19.5C18.1193 62 17 60.8807 17 59.5V59.5Z" fill="black"/>
</svg>
