<svg width="147" height="104" viewBox="0 0 147 104" fill="none" xmlns="http://www.w3.org/2000/svg">
<path d="M9.22572 67.1984C8.64762 68.5197 9.61573 70 11.058 70H132.685C134.191 70 135.156 68.3994 134.454 67.0675L107.08 15.1282C106.725 14.4542 106.018 14.0406 105.256 14.0615L72.192 14.9673C71.4577 14.9875 70.799 15.4136 70.4395 16.0542C67.5275 21.2426 64.9681 21.2424 59.7359 21.9671C59.5807 21.9886 59.4188 21.9924 59.2628 21.9773C53.5092 21.4217 50.7059 20.8374 48.1358 16.1265C47.7664 15.4496 47.0714 15 46.3003 15H33.3706C32.576 15 31.8567 15.4704 31.5382 16.1984L9.22572 67.1984Z" fill="white"/>
<path d="M10 76.0001C8.89543 76.0001 8 76.8955 8 78.0001V94.5C8 95.6046 8.89543 96.5 10 96.5H134C135.105 96.5 136 95.6046 136 94.5V78.0001C136 76.8955 135.105 76.0001 134 76.0001H10Z" fill="#B70F1E"/>
<path fill-rule="evenodd" clip-rule="evenodd" d="M2.1782 69.6066C2.06075 69.8659 2 70.1472 2 70.4319V100C2 101.105 2.89543 102 4 102H140C141.105 102 142 101.105 142 100V76.8233C142 76.0925 142.592 75.5001 143.323 75.5001V75.5001C144.316 75.5001 144.955 74.4485 144.498 73.5677L112.574 12.0001C111.902 10.685 111.478 9.99807 110.5 9.00006C109.861 8.48944 109.201 8.29115 107.647 8.09339C107.549 8.08099 107.451 8.07629 107.352 8.07875L70.5 9.00005C70.0813 8.98295 65.4469 1.97745 60 2.00005C54.9408 2.02105 51.6965 3.50783 49.0887 7.93109C48.7085 8.57597 48.0297 9.00005 47.2811 9.00005H32.5C30.3416 9.27817 29.4352 9.78973 28.5 11.5001L2.1782 69.6066ZM10 96.5C8.89543 96.5 8 95.6046 8 94.5V78.0001C8 76.8955 8.89543 76.0001 10 76.0001H134C135.105 76.0001 136 76.8955 136 78.0001V94.5C136 95.6046 135.105 96.5 134 96.5H10ZM134.454 67.0675C135.156 68.3994 134.191 70 132.685 70H11.058C9.61573 70 8.64762 68.5197 9.22572 67.1984L31.5382 16.1984C31.8567 15.4704 32.576 15 33.3706 15H46.3003C47.0714 15 47.7664 15.4496 48.1358 16.1265C50.7059 20.8374 53.5092 21.4217 59.2628 21.9773C59.4188 21.9924 59.5807 21.9886 59.7359 21.9671C64.9681 21.2424 67.5275 21.2426 70.4395 16.0542C70.799 15.4136 71.4577 14.9875 72.192 14.9673L105.256 14.0615C106.018 14.0406 106.725 14.4542 107.08 15.1282L134.454 67.0675Z" fill="black"/>
<path d="M9.22572 67.1984C8.64762 68.5197 9.61573 70 11.058 70H132.685C134.191 70 135.156 68.3994 134.454 67.0675L107.08 15.1282C106.725 14.4542 106.018 14.0406 105.256 14.0615L72.192 14.9673C71.4577 14.9875 70.799 15.4136 70.4395 16.0542C67.5275 21.2426 64.9681 21.2424 59.7359 21.9671C59.5807 21.9886 59.4188 21.9924 59.2628 21.9773C53.5092 21.4217 50.7059 20.8374 48.1358 16.1265C47.7664 15.4496 47.0714 15 46.3003 15H33.3706C32.576 15 31.8567 15.4704 31.5382 16.1984L9.22572 67.1984Z" stroke="black" stroke-width="4"/>
<path d="M10 76.0001C8.89543 76.0001 8 76.8955 8 78.0001V94.5C8 95.6046 8.89543 96.5 10 96.5H134C135.105 96.5 136 95.6046 136 94.5V78.0001C136 76.8955 135.105 76.0001 134 76.0001H10Z" stroke="black" stroke-width="4"/>
<path fill-rule="evenodd" clip-rule="evenodd" d="M2.1782 69.6066C2.06075 69.8659 2 70.1472 2 70.4319V100C2 101.105 2.89543 102 4 102H140C141.105 102 142 101.105 142 100V76.8233C142 76.0925 142.592 75.5001 143.323 75.5001V75.5001C144.316 75.5001 144.955 74.4485 144.498 73.5677L112.574 12.0001C111.902 10.685 111.478 9.99807 110.5 9.00006C109.861 8.48944 109.201 8.29115 107.647 8.09339C107.549 8.08099 107.451 8.07629 107.352 8.07875L70.5 9.00005C70.0813 8.98295 65.4469 1.97745 60 2.00005C54.9408 2.02105 51.6965 3.50783 49.0887 7.93109C48.7085 8.57597 48.0297 9.00005 47.2811 9.00005H32.5C30.3416 9.27817 29.4352 9.78973 28.5 11.5001L2.1782 69.6066ZM10 96.5C8.89543 96.5 8 95.6046 8 94.5V78.0001C8 76.8955 8.89543 76.0001 10 76.0001H134C135.105 76.0001 136 76.8955 136 78.0001V94.5C136 95.6046 135.105 96.5 134 96.5H10ZM134.454 67.0675C135.156 68.3994 134.191 70 132.685 70H11.058C9.61573 70 8.64762 68.5197 9.22572 67.1984L31.5382 16.1984C31.8567 15.4704 32.576 15 33.3706 15H46.3003C47.0714 15 47.7664 15.4496 48.1358 16.1265C50.7059 20.8374 53.5092 21.4217 59.2628 21.9773C59.4188 21.9924 59.5807 21.9886 59.7359 21.9671C64.9681 21.2424 67.5275 21.2426 70.4395 16.0542C70.799 15.4136 71.4577 14.9875 72.192 14.9673L105.256 14.0615C106.018 14.0406 106.725 14.4542 107.08 15.1282L134.454 67.0675Z" stroke="black" stroke-width="4"/>
<path d="M69.927 7.86412C68.2027 4.92179 66.0523 3.5032 62.1778 2.50291C60.6955 2.12023 59.1461 2.03198 57.6288 2.23578C53.0192 2.85492 50.6189 4.25015 48.9395 7.67346C48.2076 9.16531 48 10.8476 48 12.5092C48 14.5491 48.2629 16.6713 49.4948 18.2971C50.698 19.885 52.2358 20.7645 54.5758 21.4792C55.8532 21.8693 57.1933 22 58.5289 22H59.5294C62.0344 22 64.5855 21.5671 66.6695 20.1772C68.0948 19.2267 69.0724 18.2303 69.8887 16.9351C70.7355 15.5914 71 13.9796 71 12.3913C71 10.8142 70.7245 9.22477 69.927 7.86412Z" fill="#B70F1E" stroke="black" stroke-width="4"/>
<path d="M33.0001 35C33.0001 33.3431 34.3432 32 36.0001 32H106C107.657 32 109 33.3431 109 35V36C109 37.6569 107.657 39 106 39H36.0001C34.3432 39 33.0001 37.6569 33.0001 36V35Z" fill="black"/>
<path d="M33.0001 35C33.0001 33.3431 34.3432 32 36.0001 32H106C107.657 32 109 33.3431 109 35V36C109 37.6569 107.657 39 106 39H36.0001C34.3432 39 33.0001 37.6569 33.0001 36V35Z" fill="black"/>
<path d="M26 52C26 50.3431 27.3431 49 29 49H114C115.657 49 117 50.3431 117 52V53C117 54.6569 115.657 56 114 56H29C27.3431 56 26 54.6569 26 53V52Z" fill="black"/>
<path d="M26 52C26 50.3431 27.3431 49 29 49H114C115.657 49 117 50.3431 117 52V53C117 54.6569 115.657 56 114 56H29C27.3431 56 26 54.6569 26 53V52Z" fill="black"/>
</svg>
