<svg width="156" height="107" viewBox="0 0 156 107" fill="none" xmlns="http://www.w3.org/2000/svg">
<path d="M7.5 98L1.01817 87.4231C-1.38183 83.4231 1.01817 76.0897 2.51817 72.9231L24.5182 18.4231C28.1182 8.82306 35.6849 7.08973 39.0182 7.42306H51.5182C61.5182 -5.77695 73.0182 1.58971 77.5182 6.92304L110.018 6.42303C122.418 6.42303 129.018 25.423 133.518 34.423L154.018 74.923C156.418 79.723 155.018 84.923 154.018 86.923L147.518 97.423L7.5 98Z" fill="#F5F7F4"/>
<path d="M13.2202 73.2009C12.6443 74.522 13.6124 76.0001 15.0535 76.0001H139.727C141.223 76.0001 142.189 74.4186 141.507 73.0877L113.066 17.6045C112.719 16.9281 112.019 16.5066 111.259 16.5171L77.211 16.9835C76.4666 16.9937 75.7929 17.4197 75.4392 18.0748C72.5273 23.4687 69.9678 25.1908 64.7355 25.9661C64.5805 25.989 64.4186 25.9926 64.2627 25.9766C58.5137 25.3863 56.0813 23.5302 53.56 18.6327C53.2071 17.9471 52.5089 17.5001 51.7378 17.5001H38.81C38.0144 17.5001 37.2945 17.9716 36.9766 18.7009L13.2202 73.2009Z" fill="#D9D9D9"/>
<path d="M14 80.0001C12.8954 80.0001 12 80.8955 12 82.0001V100C12 101.105 12.8954 102 14 102H141C142.105 102 143 101.105 143 100V82.0001C143 80.8955 142.105 80.0001 141 80.0001H14Z" fill="#B70F1E"/>
<path fill-rule="evenodd" clip-rule="evenodd" d="M8.15702 75.6275C8.05339 75.8734 8 76.1375 8 76.4043V104C8 105.105 8.89543 106 10 106H145C146.105 106 147 105.105 147 104V80.8233C147 80.0925 147.592 79.5001 148.323 79.5001V79.5001C149.315 79.5001 149.955 78.4485 149.498 77.5677L117.574 16.0001C116.902 14.685 116.478 13.9981 115.5 13.0001C114.861 12.4894 114.201 12.2911 112.647 12.0934C112.549 12.081 112.451 12.0763 112.352 12.0787L75.5 13.0001C75.0813 12.9829 70.4468 5.97745 65 6.00005C59.9408 6.02105 56.6964 7.50783 54.0887 11.9311C53.7085 12.576 53.0296 13.0001 52.281 13.0001H37.5C35.3416 13.2782 34.4352 13.7897 33.5 15.5001L8.15702 75.6275ZM14 102C12.8954 102 12 101.105 12 100V82.0001C12 80.8955 12.8954 80.0001 14 80.0001H141C142.105 80.0001 143 80.8955 143 82.0001V100C143 101.105 142.105 102 141 102H14ZM141.507 73.0877C142.189 74.4186 141.223 76.0001 139.727 76.0001H15.0535C13.6124 76.0001 12.6443 74.522 13.2202 73.2009L36.9766 18.7009C37.2945 17.9716 38.0144 17.5001 38.81 17.5001H51.7378C52.5089 17.5001 53.2071 17.9471 53.56 18.6327C56.0813 23.5302 58.5137 25.3863 64.2627 25.9766C64.4186 25.9926 64.5805 25.989 64.7355 25.9661C69.9678 25.1908 72.5273 23.4687 75.4392 18.0748C75.7929 17.4197 76.4666 16.9937 77.211 16.9835L111.259 16.5171C112.019 16.5066 112.719 16.9281 113.066 17.6045L141.507 73.0877Z" fill="black"/>
<path d="M39 34.0001L111.5 33.0001M115.5 13.0001C116.478 13.9981 116.902 14.685 117.574 16.0001L149.498 77.5677C149.955 78.4485 149.315 79.5001 148.323 79.5001V79.5001C147.592 79.5001 147 80.0925 147 80.8233V104C147 105.105 146.105 106 145 106H10C8.89543 106 8 105.105 8 104V76.4043C8 76.1375 8.05339 75.8734 8.15702 75.6275L33.5 15.5001C34.4352 13.7897 35.3416 13.2782 37.5 13.0001H52.281C53.0296 13.0001 53.7085 12.576 54.0887 11.9311C56.6964 7.50783 59.9408 6.02105 65 6.00005C70.4468 5.97745 75.0813 12.9829 75.5 13.0001L112.352 12.0787C112.451 12.0763 112.549 12.081 112.647 12.0934C114.201 12.2911 114.861 12.4894 115.5 13.0001ZM38.81 17.5001H51.7378C52.5089 17.5001 53.2071 17.9471 53.56 18.6327C56.0813 23.5302 58.5137 25.3863 64.2627 25.9766C64.4186 25.9926 64.5805 25.989 64.7355 25.9661C69.9678 25.1908 72.5273 23.4687 75.4392 18.0748C75.7929 17.4197 76.4666 16.9937 77.211 16.9835L111.259 16.5171C112.019 16.5066 112.719 16.9281 113.066 17.6045L141.507 73.0877C142.189 74.4186 141.223 76.0001 139.727 76.0001H15.0535C13.6124 76.0001 12.6443 74.522 13.2202 73.2009L36.9766 18.7009C37.2945 17.9716 38.0144 17.5001 38.81 17.5001ZM143 82.0001V100C143 101.105 142.105 102 141 102H14C12.8954 102 12 101.105 12 100V82.0001C12 80.8955 12.8954 80.0001 14 80.0001H141C142.105 80.0001 143 80.8955 143 82.0001Z" stroke="black"/>
<path d="M116.5 42.0001L47.5 42.5001C39.3545 42.4196 36.4354 42.6287 34.5 43.5001" stroke="black"/>
<path d="M31 52.0001C33.3341 51.1885 36.2638 50.9754 39 51.0001H46L120.5 50.5001" stroke="black"/>
<path d="M27 62.0001C28.3297 60.6102 34.2423 59.8839 40.5 60.0001C73.4993 59.8048 91.5007 59.6953 124.5 59.5001" stroke="black"/>
<path d="M24 70.5001C28.876 68.9949 30.6414 68.598 37.5 68.5L129 68.0001" stroke="black"/>
<path d="M39 34.0001L110.87 33.0019C110.956 33.0007 111.042 33.0107 111.126 33.0316L113 33.5001" stroke="black"/>
<path d="M57.6384 13.6495C58.4822 12.1231 59.5007 11.2554 61.1335 10.6476C62.6597 10.0796 64.3419 9.97987 65.9289 10.3448C67.9431 10.8079 69.0989 11.7079 69.9437 13.5354C70.3794 14.4779 70.5 15.5286 70.5 16.567C70.5 17.8442 70.3521 19.1724 69.606 20.209C68.9357 21.1402 68.0882 21.6785 66.8318 22.1105C65.9607 22.41 65.034 22.5001 64.1129 22.5001C62.3947 22.5001 60.6226 22.2069 59.264 21.155C58.5801 20.6256 58.0841 20.0599 57.6621 19.3511C57.1537 18.4971 57 17.4885 57 16.4946C57 15.5078 57.161 14.5131 57.6384 13.6495Z" fill="#B70F1E" stroke="black"/>
</svg>
