<svg width="512" height="104" viewBox="0 0 512 104" fill="none" xmlns="http://www.w3.org/2000/svg">
<path d="M181.535 56.362C181.25 56.5653 180.864 56.7483 180.376 56.911C179.929 57.0737 179.42 57.155 178.851 57.155C178.2 57.155 177.611 57.0533 177.082 56.85C176.594 56.6467 176.248 56.3213 176.045 55.874C173.89 51.3193 171.999 47.151 170.372 43.369C168.786 39.587 167.505 36.4557 166.529 33.975H166.285C166.163 37.025 166.021 39.8717 165.858 42.515C165.736 45.1583 165.594 47.7203 165.431 50.201C165.268 52.641 165.106 55.1623 164.943 57.765C164.821 60.327 164.658 63.072 164.455 66C164.211 66.0813 163.886 66.1627 163.479 66.244C163.113 66.3253 162.706 66.366 162.259 66.366C161.364 66.366 160.734 66.183 160.368 65.817C160.002 65.4103 159.819 64.8817 159.819 64.231C159.819 63.743 159.86 62.6247 159.941 60.876C160.063 59.0867 160.185 56.911 160.307 54.349C160.47 51.787 160.653 49.0623 160.856 46.175C161.059 43.247 161.263 40.38 161.466 37.574C161.71 34.7273 161.934 32.1653 162.137 29.888C162.462 29.6033 162.93 29.339 163.54 29.095C164.15 28.851 164.841 28.729 165.614 28.729C166.549 28.729 167.342 28.912 167.993 29.278C168.644 29.644 169.152 30.2133 169.518 30.986C170.575 33.06 171.633 35.317 172.69 37.757C173.747 40.197 174.784 42.637 175.801 45.077C176.818 47.517 177.794 49.8147 178.729 51.97H178.973C180.762 47.6593 182.531 43.5113 184.28 39.526C186.069 35.5407 187.574 32.145 188.794 29.339C189.16 29.1357 189.628 28.9933 190.197 28.912C190.766 28.79 191.295 28.729 191.783 28.729C192.718 28.729 193.45 28.8917 193.979 29.217C194.548 29.5017 194.914 29.9897 195.077 30.681C195.24 31.3723 195.423 32.5517 195.626 34.219C195.829 35.8863 196.033 37.8587 196.236 40.136C196.439 42.3727 196.622 44.7313 196.785 47.212C196.988 49.6927 197.171 52.1327 197.334 54.532C197.497 56.9313 197.639 59.107 197.761 61.059C197.924 62.9703 198.025 64.4953 198.066 65.634C197.7 65.878 197.314 66.061 196.907 66.183C196.5 66.305 196.033 66.366 195.504 66.366C194.894 66.366 194.345 66.2237 193.857 65.939C193.41 65.6137 193.145 65.0443 193.064 64.231C192.82 60.2863 192.576 56.4027 192.332 52.58C192.129 48.7167 191.946 45.1787 191.783 41.966C191.62 38.7533 191.478 36.1303 191.356 34.097H191.112C190.217 36.3337 188.997 39.221 187.452 42.759C185.907 46.2563 183.934 50.7907 181.535 56.362ZM208.702 55.02L208.458 51.177L226.88 48.676C226.718 46.4393 225.945 44.6093 224.562 43.186C223.18 41.722 221.268 40.99 218.828 40.99C216.307 40.99 214.213 41.905 212.545 43.735C210.919 45.5243 210.105 48.1067 210.105 51.482V52.824C210.39 56.0773 211.447 58.558 213.277 60.266C215.148 61.9333 217.69 62.767 220.902 62.767C222.61 62.767 224.156 62.4823 225.538 61.913C226.921 61.3437 228.019 60.7337 228.832 60.083C229.28 60.3677 229.625 60.7133 229.869 61.12C230.154 61.486 230.296 61.913 230.296 62.401C230.296 63.1737 229.849 63.9057 228.954 64.597C228.1 65.2477 226.941 65.7763 225.477 66.183C224.054 66.5897 222.448 66.793 220.658 66.793C217.527 66.793 214.802 66.2237 212.484 65.085C210.207 63.9463 208.438 62.2587 207.177 60.022C205.957 57.7447 205.347 54.9793 205.347 51.726C205.347 49.408 205.673 47.3543 206.323 45.565C207.015 43.735 207.95 42.1897 209.129 40.929C210.349 39.6683 211.793 38.7127 213.46 38.062C215.128 37.3707 216.937 37.025 218.889 37.025C221.37 37.025 223.546 37.5537 225.416 38.611C227.328 39.6683 228.812 41.1527 229.869 43.064C230.967 44.9347 231.516 47.09 231.516 49.53C231.516 50.4247 231.313 51.0753 230.906 51.482C230.5 51.848 229.93 52.0717 229.198 52.153L208.702 55.02ZM261.318 46.48V53.495H256.438V46.846C256.438 44.8533 255.849 43.3893 254.669 42.454C253.531 41.5187 252.006 41.051 250.094 41.051C248.834 41.051 247.614 41.2543 246.434 41.661C245.255 42.0677 244.259 42.5353 243.445 43.064V53.495H238.565V43.308C238.565 42.4947 238.728 41.8033 239.053 41.234C239.419 40.6647 240.029 40.1157 240.883 39.587C241.981 38.8957 243.364 38.306 245.031 37.818C246.739 37.2893 248.447 37.025 250.155 37.025C252.229 37.025 254.059 37.3503 255.645 38.001C257.231 38.611 258.411 39.465 259.183 40.563C259.427 40.807 259.631 41.0307 259.793 41.234C259.956 41.4373 260.119 41.7017 260.281 42.027C260.566 42.515 260.81 43.1453 261.013 43.918C261.217 44.6907 261.318 45.5447 261.318 46.48ZM279.191 46.602V53.495H274.311V46.846C274.311 44.8533 273.742 43.3893 272.603 42.454C271.465 41.5187 269.94 41.051 268.028 41.051C266.605 41.051 265.222 41.356 263.88 41.966C262.579 42.5353 261.4 43.369 260.342 44.467L258.39 40.929C259.448 39.8717 260.83 38.9567 262.538 38.184C264.246 37.4113 266.198 37.025 268.394 37.025C270.59 37.025 272.481 37.3707 274.067 38.062C275.694 38.7533 276.955 39.8107 277.849 41.234C278.744 42.6573 279.191 44.4467 279.191 46.602ZM238.565 50.262H243.445V65.878C243.242 65.9593 242.937 66.0407 242.53 66.122C242.124 66.244 241.676 66.305 241.188 66.305C240.334 66.305 239.684 66.1423 239.236 65.817C238.789 65.451 238.565 64.8817 238.565 64.109V50.262ZM256.438 50.262H261.318V65.878C261.115 65.9593 260.79 66.0407 260.342 66.122C259.936 66.244 259.509 66.305 259.061 66.305C258.167 66.305 257.496 66.1423 257.048 65.817C256.642 65.451 256.438 64.8817 256.438 64.109V50.262ZM274.311 50.262H279.191V65.878C278.988 65.9593 278.663 66.0407 278.215 66.122C277.809 66.244 277.382 66.305 276.934 66.305C276.04 66.305 275.369 66.1423 274.921 65.817C274.515 65.451 274.311 64.8817 274.311 64.109V50.262ZM314.535 51.909C314.535 54.9183 313.966 57.5413 312.827 59.778C311.688 62.0147 310.082 63.743 308.008 64.963C305.934 66.183 303.494 66.793 300.688 66.793C297.882 66.793 295.422 66.183 293.307 64.963C291.233 63.743 289.627 62.0147 288.488 59.778C287.349 57.5413 286.78 54.9183 286.78 51.909C286.78 48.859 287.349 46.236 288.488 44.04C289.667 41.8033 291.294 40.075 293.368 38.855C295.483 37.635 297.923 37.025 300.688 37.025C303.453 37.025 305.873 37.635 307.947 38.855C310.021 40.075 311.627 41.8033 312.766 44.04C313.945 46.236 314.535 48.859 314.535 51.909ZM300.688 41.051C297.963 41.051 295.788 42.027 294.161 43.979C292.575 45.8903 291.782 48.5337 291.782 51.909C291.782 55.325 292.555 57.9887 294.1 59.9C295.686 61.8113 297.882 62.767 300.688 62.767C303.453 62.767 305.609 61.8113 307.154 59.9C308.74 57.948 309.533 55.2843 309.533 51.909C309.533 48.5337 308.74 45.8903 307.154 43.979C305.609 42.027 303.453 41.051 300.688 41.051ZM326.963 43.064V52.702H322.083V43.43C322.083 42.4947 322.245 41.7627 322.571 41.234C322.937 40.6647 323.526 40.1157 324.34 39.587C325.397 38.8957 326.841 38.306 328.671 37.818C330.501 37.2893 332.534 37.025 334.771 37.025C338.024 37.025 339.651 37.8383 339.651 39.465C339.651 39.8717 339.59 40.258 339.468 40.624C339.346 40.9493 339.183 41.234 338.98 41.478C338.573 41.3967 338.044 41.3153 337.394 41.234C336.743 41.1527 336.092 41.112 335.442 41.112C333.571 41.112 331.924 41.3153 330.501 41.722C329.077 42.088 327.898 42.5353 326.963 43.064ZM322.083 49.896L326.963 50.628V65.878C326.759 65.9593 326.454 66.0407 326.048 66.122C325.641 66.244 325.194 66.305 324.706 66.305C323.852 66.305 323.201 66.1423 322.754 65.817C322.306 65.451 322.083 64.8817 322.083 64.109V49.896ZM352.062 59.717C351.371 58.4157 350.537 56.667 349.561 54.471C348.585 52.2343 347.568 49.7537 346.511 47.029C345.494 44.2637 344.518 41.4577 343.583 38.611C343.868 38.2043 344.234 37.879 344.681 37.635C345.169 37.391 345.677 37.269 346.206 37.269C346.897 37.269 347.467 37.452 347.914 37.818C348.361 38.184 348.727 38.794 349.012 39.648C350.232 43.064 351.513 46.4597 352.855 49.835C354.197 53.2103 355.681 56.7077 357.308 60.327H357.552C358.406 58.619 359.301 56.484 360.236 53.922C361.171 51.36 362.066 48.6557 362.92 45.809C363.774 42.9623 364.486 40.2783 365.055 37.757C365.34 37.635 365.645 37.5333 365.97 37.452C366.336 37.33 366.722 37.269 367.129 37.269C367.82 37.269 368.39 37.452 368.837 37.818C369.284 38.1433 369.508 38.6517 369.508 39.343C369.508 39.9937 369.325 41.0917 368.959 42.637C368.593 44.1417 368.085 45.9107 367.434 47.944C366.824 49.9367 366.092 52.0717 365.238 54.349C364.425 56.5857 363.53 58.802 362.554 60.998C361.619 63.1533 360.663 65.1053 359.687 66.854C357.816 70.3107 356.108 72.954 354.563 74.784C353.018 76.6547 351.594 77.59 350.293 77.59C349.358 77.59 348.626 77.346 348.097 76.858C347.609 76.37 347.304 75.8007 347.182 75.15C348.077 74.3773 349.073 73.3403 350.171 72.039C351.31 70.7783 352.387 69.3957 353.404 67.891C354.461 66.427 355.315 65.024 355.966 63.682C355.275 63.4787 354.624 63.1127 354.014 62.584C353.445 62.0553 352.794 61.0997 352.062 59.717ZM398.133 56.362C397.848 56.5653 397.462 56.7483 396.974 56.911C396.526 57.0737 396.018 57.155 395.449 57.155C394.798 57.155 394.208 57.0533 393.68 56.85C393.192 56.6467 392.846 56.3213 392.643 55.874C390.487 51.3193 388.596 47.151 386.97 43.369C385.384 39.587 384.103 36.4557 383.127 33.975H382.883C382.761 37.025 382.618 39.8717 382.456 42.515C382.334 45.1583 382.191 47.7203 382.029 50.201C381.866 52.641 381.703 55.1623 381.541 57.765C381.419 60.327 381.256 63.072 381.053 66C380.809 66.0813 380.483 66.1627 380.077 66.244C379.711 66.3253 379.304 66.366 378.857 66.366C377.962 66.366 377.332 66.183 376.966 65.817C376.6 65.4103 376.417 64.8817 376.417 64.231C376.417 63.743 376.457 62.6247 376.539 60.876C376.661 59.0867 376.783 56.911 376.905 54.349C377.067 51.787 377.25 49.0623 377.454 46.175C377.657 43.247 377.86 40.38 378.064 37.574C378.308 34.7273 378.531 32.1653 378.735 29.888C379.06 29.6033 379.528 29.339 380.138 29.095C380.748 28.851 381.439 28.729 382.212 28.729C383.147 28.729 383.94 28.912 384.591 29.278C385.241 29.644 385.75 30.2133 386.116 30.986C387.173 33.06 388.23 35.317 389.288 37.757C390.345 40.197 391.382 42.637 392.399 45.077C393.415 47.517 394.391 49.8147 395.327 51.97H395.571C397.36 47.6593 399.129 43.5113 400.878 39.526C402.667 35.5407 404.172 32.145 405.392 29.339C405.758 29.1357 406.225 28.9933 406.795 28.912C407.364 28.79 407.893 28.729 408.381 28.729C409.316 28.729 410.048 28.8917 410.577 29.217C411.146 29.5017 411.512 29.9897 411.675 30.681C411.837 31.3723 412.02 32.5517 412.224 34.219C412.427 35.8863 412.63 37.8587 412.834 40.136C413.037 42.3727 413.22 44.7313 413.383 47.212C413.586 49.6927 413.769 52.1327 413.932 54.532C414.094 56.9313 414.237 59.107 414.359 61.059C414.521 62.9703 414.623 64.4953 414.664 65.634C414.298 65.878 413.911 66.061 413.505 66.183C413.098 66.305 412.63 66.366 412.102 66.366C411.492 66.366 410.943 66.2237 410.455 65.939C410.007 65.6137 409.743 65.0443 409.662 64.231C409.418 60.2863 409.174 56.4027 408.93 52.58C408.726 48.7167 408.543 45.1787 408.381 41.966C408.218 38.7533 408.076 36.1303 407.954 34.097H407.71C406.815 36.3337 405.595 39.221 404.05 42.759C402.504 46.2563 400.532 50.7907 398.133 56.362ZM433.834 62.828C435.542 62.828 436.945 62.6653 438.043 62.34C439.182 61.974 439.995 61.6283 440.483 61.303V52.458L432.919 53.251C430.805 53.4137 429.239 53.8813 428.222 54.654C427.206 55.4267 426.697 56.545 426.697 58.009C426.697 59.5137 427.287 60.693 428.466 61.547C429.686 62.401 431.476 62.828 433.834 62.828ZM433.773 37.025C437.311 37.025 440.117 37.818 442.191 39.404C444.265 40.99 445.302 43.491 445.302 46.907V61.364C445.302 62.2587 445.119 62.95 444.753 63.438C444.428 63.8853 443.92 64.3123 443.228 64.719C442.252 65.2477 440.951 65.7357 439.324 66.183C437.698 66.6303 435.868 66.854 433.834 66.854C430.012 66.854 427.043 66.1017 424.928 64.597C422.854 63.0923 421.817 60.9167 421.817 58.07C421.817 55.4267 422.692 53.4137 424.44 52.031C426.23 50.6077 428.69 49.7537 431.821 49.469L440.483 48.615V46.907C440.483 44.8737 439.873 43.3893 438.653 42.454C437.433 41.5187 435.786 41.051 433.712 41.051C432.045 41.051 430.439 41.295 428.893 41.783C427.389 42.271 426.047 42.82 424.867 43.43C424.542 43.1453 424.237 42.82 423.952 42.454C423.708 42.0473 423.586 41.6407 423.586 41.234C423.586 40.1767 424.176 39.3633 425.355 38.794C426.453 38.2247 427.714 37.7977 429.137 37.513C430.601 37.1877 432.147 37.025 433.773 37.025ZM454.271 49.896H459.151V58.314C459.151 59.9407 459.618 61.0997 460.554 61.791C461.489 62.4417 462.77 62.767 464.397 62.767C465.088 62.767 465.861 62.645 466.715 62.401C467.569 62.157 468.28 61.8723 468.85 61.547C469.094 61.791 469.317 62.096 469.521 62.462C469.724 62.828 469.826 63.255 469.826 63.743C469.826 64.6377 469.297 65.3697 468.24 65.939C467.182 66.5083 465.718 66.793 463.848 66.793C461.001 66.793 458.683 66.1627 456.894 64.902C455.145 63.6413 454.271 61.547 454.271 58.619V49.896ZM456.772 42.454V38.428H469.155C469.277 38.5907 469.399 38.855 469.521 39.221C469.643 39.587 469.704 39.9733 469.704 40.38C469.704 41.0307 469.541 41.539 469.216 41.905C468.89 42.271 468.443 42.454 467.874 42.454H456.772ZM459.151 51.726H454.271V29.644C454.474 29.5627 454.779 29.4813 455.186 29.4C455.633 29.278 456.101 29.217 456.589 29.217C457.443 29.217 458.073 29.4 458.48 29.766C458.927 30.0913 459.151 30.6403 459.151 31.413V51.726ZM477.782 55.02L477.538 51.177L495.96 48.676C495.797 46.4393 495.024 44.6093 493.642 43.186C492.259 41.722 490.348 40.99 487.908 40.99C485.386 40.99 483.292 41.905 481.625 43.735C479.998 45.5243 479.185 48.1067 479.185 51.482V52.824C479.469 56.0773 480.527 58.558 482.357 60.266C484.227 61.9333 486.769 62.767 489.982 62.767C491.69 62.767 493.235 62.4823 494.618 61.913C496 61.3437 497.098 60.7337 497.912 60.083C498.359 60.3677 498.705 60.7133 498.949 61.12C499.233 61.486 499.376 61.913 499.376 62.401C499.376 63.1737 498.928 63.9057 498.034 64.597C497.18 65.2477 496.021 65.7763 494.557 66.183C493.133 66.5897 491.527 66.793 489.738 66.793C486.606 66.793 483.882 66.2237 481.564 65.085C479.286 63.9463 477.517 62.2587 476.257 60.022C475.037 57.7447 474.427 54.9793 474.427 51.726C474.427 49.408 474.752 47.3543 475.403 45.565C476.094 43.735 477.029 42.1897 478.209 40.929C479.429 39.6683 480.872 38.7127 482.54 38.062C484.207 37.3707 486.017 37.025 487.969 37.025C490.449 37.025 492.625 37.5537 494.496 38.611C496.407 39.6683 497.891 41.1527 498.949 43.064C500.047 44.9347 500.596 47.09 500.596 49.53C500.596 50.4247 500.392 51.0753 499.986 51.482C499.579 51.848 499.01 52.0717 498.278 52.153L477.782 55.02Z" fill="black"/>
<path d="M6.22015 70.2008C5.64429 71.5219 6.6124 73 8.05354 73H132.727C134.223 73 135.189 71.4186 134.507 70.0877L106.066 14.6045C105.719 13.928 105.019 13.5066 104.259 13.517L70.211 13.9834C69.4666 13.9936 68.7929 14.4196 68.4392 15.0747C65.5273 20.4686 62.9678 22.1907 57.7355 22.966C57.5805 22.989 57.4186 22.9925 57.2627 22.9765C51.5137 22.3862 49.0813 20.5302 46.56 15.6326C46.2071 14.947 45.5089 14.5 44.7378 14.5H31.81C31.0144 14.5 30.2945 14.9715 29.9766 15.7008L6.22015 70.2008Z" fill="#D9D9D9"/>
<path d="M7 77C5.89543 77 5 77.8954 5 79V97C5 98.1046 5.89543 99 7 99H134C135.105 99 136 98.1046 136 97V79C136 77.8954 135.105 77 134 77H7Z" fill="#B70F1E"/>
<path fill-rule="evenodd" clip-rule="evenodd" d="M1.15702 72.6275C1.05339 72.8733 1 73.1375 1 73.4043V101C1 102.105 1.89543 103 3 103H138C139.105 103 140 102.105 140 101V77.8233C140 77.0925 140.592 76.5 141.323 76.5V76.5C142.315 76.5 142.955 75.4485 142.498 74.5676L110.574 13C109.902 11.6849 109.478 10.998 108.5 10C107.861 9.48939 107.201 9.29109 105.647 9.09334C105.549 9.08093 105.451 9.07624 105.352 9.0787L68.5 10C68.0813 9.9829 63.4468 2.9774 58 3C52.9408 3.02099 49.6964 4.50777 47.0887 8.93104C46.7085 9.57591 46.0296 10 45.281 10H30.5C28.3416 10.2781 27.4352 10.7897 26.5 12.5L1.15702 72.6275ZM7 99C5.89543 99 5 98.1046 5 97V79C5 77.8954 5.89543 77 7 77H134C135.105 77 136 77.8954 136 79V97C136 98.1046 135.105 99 134 99H7ZM134.507 70.0877C135.189 71.4186 134.223 73 132.727 73H8.05354C6.6124 73 5.64429 71.5219 6.22015 70.2008L29.9766 15.7008C30.2945 14.9715 31.0144 14.5 31.81 14.5H44.7378C45.5089 14.5 46.2071 14.947 46.56 15.6326C49.0813 20.5302 51.5137 22.3862 57.2627 22.9765C57.4186 22.9925 57.5805 22.989 57.7355 22.966C62.9678 22.1907 65.5273 20.4686 68.4392 15.0747C68.7929 14.4196 69.4666 13.9936 70.211 13.9834L104.259 13.517C105.019 13.5066 105.719 13.928 106.066 14.6045L134.507 70.0877Z" fill="black"/>
<path d="M32 31L104.5 30M108.5 10C109.478 10.998 109.902 11.6849 110.574 13L142.498 74.5676C142.955 75.4485 142.315 76.5 141.323 76.5V76.5C140.592 76.5 140 77.0925 140 77.8233V101C140 102.105 139.105 103 138 103H3C1.89543 103 1 102.105 1 101V73.4043C1 73.1375 1.05339 72.8733 1.15702 72.6275L26.5 12.5C27.4352 10.7897 28.3416 10.2781 30.5 10H45.281C46.0296 10 46.7085 9.57591 47.0887 8.93104C49.6964 4.50777 52.9408 3.02099 58 3C63.4468 2.9774 68.0813 9.9829 68.5 10L105.352 9.0787C105.451 9.07624 105.549 9.08093 105.647 9.09334C107.201 9.29109 107.861 9.48939 108.5 10ZM31.81 14.5H44.7378C45.5089 14.5 46.2071 14.947 46.56 15.6326C49.0813 20.5302 51.5137 22.3862 57.2627 22.9765C57.4186 22.9925 57.5805 22.989 57.7355 22.966C62.9678 22.1907 65.5273 20.4686 68.4392 15.0747C68.7929 14.4196 69.4666 13.9936 70.211 13.9834L104.259 13.517C105.019 13.5066 105.719 13.928 106.066 14.6045L134.507 70.0877C135.189 71.4186 134.223 73 132.727 73H8.05354C6.6124 73 5.64429 71.5219 6.22015 70.2008L29.9766 15.7008C30.2945 14.9715 31.0144 14.5 31.81 14.5ZM136 79V97C136 98.1046 135.105 99 134 99H7C5.89543 99 5 98.1046 5 97V79C5 77.8954 5.89543 77 7 77H134C135.105 77 136 77.8954 136 79Z" stroke="black"/>
<path d="M109.5 39L40.5 39.5C32.3545 39.4196 29.4354 39.6287 27.5 40.5" stroke="black"/>
<path d="M24 49C26.3341 48.1885 29.2638 47.9754 32 48H39L113.5 47.5" stroke="black"/>
<path d="M20 59C21.3297 57.6102 27.2423 56.8839 33.5 57C66.4993 56.8047 84.5007 56.6953 117.5 56.5" stroke="black"/>
<path d="M17 67.5C21.876 65.9949 23.6414 65.598 30.5 65.5L122 65" stroke="black"/>
<path d="M32 31L103.87 30.0018C103.956 30.0006 104.042 30.0106 104.126 30.0316L106 30.5" stroke="black"/>
<path d="M50.6384 10.6494C51.4822 9.12307 52.5007 8.25531 54.1335 7.64758C55.6597 7.07957 57.3419 6.97981 58.9289 7.3447C60.9431 7.80783 62.0989 8.70788 62.9437 10.5353C63.3794 11.4779 63.5 12.5285 63.5 13.5669C63.5 14.8441 63.3521 16.1723 62.606 17.2089C61.9357 18.1402 61.0882 18.6785 59.8318 19.1105C58.9607 19.41 58.034 19.5 57.1129 19.5C55.3947 19.5 53.6226 19.2068 52.264 18.155C51.5801 17.6255 51.0841 17.0599 50.6621 16.351C50.1537 15.497 50 14.4884 50 13.4945C50 12.5077 50.161 11.5131 50.6384 10.6494Z" fill="#B70F1E" stroke="black"/>
</svg>
